# ProBuilder 5.0.6
# https://unity3d.com/unity/features/worldbuilding/probuilder
# 3.08.2022 02:27:26

mtllib ./Area1_2.mtl
o Area1_2

g Cube (1)
v -0.5000005 2.44379E-06 1.5
v -0.500001 2.44379E-06 -1.5
v -0.5000001 4.000003 1.5
v -0.5000005 4.000003 -1.5
v 11.50001 1.013278E-06 -1.5
v 11.50001 1.013278E-06 1.5
v 11.50001 4.000001 -1.5
v 11.50001 4.000001 1.5
v 3.500001 1.966953E-06 1.5
v 3.500003 4.000002 1.5
v 3.500001 1.966953E-06 -1.5
v 3.500003 4.000002 -1.5
v 3.500005 19.00001 1.5
v -0.4999985 19.00001 1.5
v -0.4999987 19.00001 -1.5
v 3.500005 19.00001 -1.5

vt 1.5 2.384186E-06
vt -1.5 2.384186E-06
vt 1.5 4.000003
vt -1.5 4.000003
vt 1.5 1.198054E-05
vt 1.5 4.000012
vt 11.50001 1.013278E-06
vt 3.500001 1.966953E-06
vt 3.500003 4.000002
vt 11.50001 4.000001
vt -0.5000005 2.44379E-06
vt -0.5000001 4.000003
vt 0.500001 2.44379E-06
vt -3.500001 1.966953E-06
vt -3.500003 4.000002
vt 0.5000005 4.000003
vt -11.50001 1.013278E-06
vt -11.50001 4.000001
vt -11.50001 1.5
vt -3.500002 1.5
vt -3.500002 -1.5
vt -11.50001 -1.5
vt 0.4999985 1.5
vt 0.4999987 -1.5
vt 11.50001 -1.5
vt 3.500001 -1.5
vt 3.500001 1.5
vt 11.50001 1.5
vt -0.500001 -1.5
vt -0.5000005 1.5
vt 0.4999987 19.00001
vt -3.500005 19.00001
vt -1.5 4.000003
vt 1.5 19.00001
vt -1.5 19.00001
vt 1.5 19.00001
vt -1.5 19.00001
vt 3.500005 19.00001
vt -0.4999985 19.00001

vn -1 1.192093E-07 1.589457E-07
vn 1 -9.536741E-07 0
vn 0 0 1
vn 0 0 -1
vn 1.192092E-07 1 4.736947E-15
vn -1.192093E-07 -1 0

usemtl Prototype_512x512_Blue1
f 3/3/1 4/4/1 2/2/1 1/1/1
f 7/6/2 8/4/2 6/2/2 5/5/2
f 10/9/3 9/8/3 6/7/3 8/10/3
f 3/12/3 1/11/3 9/8/3 10/9/3
f 12/15/4 11/14/4 2/13/4 4/16/4
f 7/18/4 5/17/4 11/14/4 12/15/4
f 10/20/5 8/19/5 7/22/5 12/21/5
f 14/23/5 13/20/5 16/21/5 15/24/5
f 5/25/6 6/28/6 9/27/6 11/26/6
f 11/26/6 9/27/6 1/30/6 2/29/6
f 15/31/4 16/32/4 12/15/4 4/16/4
f 16/34/2 13/35/2 10/33/2 12/6/2
f 14/36/1 15/37/1 4/4/1 3/3/1
f 13/38/3 14/39/3 3/12/3 10/9/3

